<svg width="511" height="574" viewBox="0 0 511 574" fill="none" xmlns="http://www.w3.org/2000/svg">
<path d="M511 1127.6C612.919 1128.47 683.953 1031.64 769.757 976.634C855.674 921.552 970.685 896.096 1015.28 804.299C1060.03 712.203 1018.34 604.406 999.497 503.765C981.428 407.273 961.533 312.333 907.779 230.189C848.324 139.332 781.147 39.327 676.537 10.231C572.182 -18.794 458.543 23.5101 365.785 79.4421C284.463 128.478 255.6 227.083 195.278 300.425C137.01 371.27 45.06 415.572 17.394 503.03C-12.02 596.016 -3.26 701.726 40.812 788.727C84.184 874.345 177.213 916.111 255.075 972.227C337.712 1031.78 409.142 1126.73 511 1127.6Z" fill="#0C042F"/>
</svg>
