<svg width="153" height="32" viewBox="0 0 153 32" fill="none" xmlns="http://www.w3.org/2000/svg">
<g clip-path="url(#clip0_330_54)">
<path d="M147.805 16.0103C147.805 18.4219 147.057 20.4028 145.56 21.9529C144.064 23.5031 142.097 24.2772 139.66 24.2754C138.537 24.2754 137.559 24.0756 136.727 23.6761C135.941 23.3257 135.296 22.7352 134.888 21.9949V31.9572H129.813V8.28099H134.888V10.0519C135.386 9.32815 136.072 8.746 136.878 8.36503C137.747 7.9665 138.699 7.76868 139.66 7.78708C142.097 7.78708 144.064 8.5542 145.56 10.0885C147.057 11.6227 147.805 13.5966 147.805 16.0103ZM142.749 16.0103C142.749 14.7964 142.374 13.7771 141.621 12.9415C141.274 12.5427 140.839 12.2239 140.35 12.0085C139.861 11.7931 139.328 11.6864 138.791 11.6963C138.26 11.6876 137.732 11.7944 137.249 12.0089C136.766 12.2235 136.339 12.5403 135.997 12.9362C135.256 13.7612 134.885 14.7858 134.888 16.0103C134.888 17.2396 135.261 18.2728 136.009 19.1101C136.347 19.5084 136.771 19.8281 137.253 20.0454C137.735 20.2628 138.26 20.3723 138.791 20.3659C139.328 20.3732 139.859 20.2637 140.346 20.0454C140.834 19.827 141.266 19.5055 141.609 19.1042C142.369 18.2588 142.749 17.2275 142.749 16.0103ZM127.635 23.7656H122.561V21.9949C122.067 22.7241 121.381 23.3118 120.575 23.6973C119.704 24.0951 118.751 24.293 117.788 24.2754C115.35 24.2754 113.383 23.5065 111.887 21.9688C110.391 20.429 109.643 18.4515 109.643 16.0363C109.643 13.6247 110.391 11.6475 111.887 10.1046C113.384 8.55993 115.351 7.78756 117.788 7.78747C118.91 7.78747 119.887 7.98541 120.72 8.38129C121.506 8.72617 122.153 9.31357 122.56 10.0523V8.28099H127.634L127.635 23.7656ZM122.561 16.0363C122.561 14.8173 122.187 13.7893 121.438 12.9522C120.69 12.1167 119.767 11.6963 118.657 11.6963C118.129 11.6881 117.607 11.7959 117.129 12.0115C116.65 12.2271 116.228 12.5451 115.894 12.9415C115.157 13.7771 114.789 14.8086 114.79 16.0363C114.79 17.2712 115.153 18.301 115.881 19.1259C116.218 19.5225 116.642 19.84 117.123 20.0548C117.604 20.2695 118.128 20.3758 118.657 20.3659C119.189 20.3749 119.716 20.2677 120.199 20.0522C120.683 19.8368 121.11 19.5185 121.45 19.1208C122.193 18.2854 122.561 17.2609 122.561 16.0363ZM108.442 23.2612C107.802 23.6089 107.119 23.8755 106.409 24.0547C105.678 24.2118 104.931 24.2861 104.183 24.2758C101.215 24.2758 98.8434 23.5261 97.0694 22.0267C95.2956 20.5292 94.4087 18.5326 94.4084 16.0367C94.4084 13.5884 95.3014 11.6006 97.0873 10.073C98.8732 8.54922 101.238 7.78737 104.183 7.78747C104.941 7.77807 105.698 7.85032 106.439 8.00288C107.135 8.16449 107.807 8.40798 108.442 8.72795V13.1417C107.927 12.6785 107.319 12.3226 106.656 12.096C105.969 11.8368 105.24 11.7015 104.503 11.6967C103.078 11.6967 101.898 12.1065 100.961 12.9261C100.509 13.3094 100.149 13.7842 99.9065 14.317C99.6637 14.85 99.5439 15.4281 99.5554 16.0107C99.5554 17.3453 100.001 18.4013 100.889 19.1896C101.775 19.9724 102.98 20.3646 104.503 20.3663C105.25 20.3681 105.991 20.2326 106.687 19.967C107.348 19.7248 107.946 19.3466 108.442 18.8584L108.442 23.2612ZM93.932 11.9116H91.4399V23.7656H86.3658V11.9116H84.3686V8.28099H86.3658V3.27885H91.4399V8.28099H93.9321L93.932 11.9116ZM83.5664 16.0048C83.5664 16.3834 83.5664 16.6669 83.5603 16.8504C83.5549 17.0218 83.5327 17.1925 83.494 17.3599H71.2995C71.5113 18.2866 72.0179 19.1248 72.7476 19.756C73.4198 20.3481 74.2959 20.6742 75.2032 20.6702C75.9543 20.6811 76.6951 20.4999 77.3512 20.1448C77.9701 19.8218 78.4731 19.3235 78.7936 18.7161L82.8599 20.4869C82.1578 21.7041 81.0908 22.6846 79.801 23.2978C78.4675 23.9493 76.8926 24.2754 75.0649 24.2754C72.4282 24.2754 70.3104 23.5188 68.7116 22.0056C67.1128 20.4924 66.3145 18.4939 66.3165 16.0103C66.3165 13.6878 67.147 11.7366 68.808 10.1566C70.4673 8.57502 72.5167 7.78509 74.9561 7.78682C77.49 7.78682 79.5596 8.56093 81.1649 10.1092C82.7641 11.6594 83.5644 13.6246 83.5664 16.0048ZM78.5467 14.6493C78.3236 13.6351 77.8914 12.8365 77.2498 12.2533C76.6135 11.6861 75.7808 11.3728 74.9174 11.3757C74.0542 11.3786 73.2236 11.6976 72.5915 12.269C71.94 12.8627 71.5097 13.6562 71.3004 14.6495L78.5467 14.6493ZM64.8684 23.7656H59.6557L46.9429 7.72932V23.7656H41.7303V-0.000244141H46.9429L59.6557 15.9782V0.000148866H64.8684V23.7656Z" fill="white"/>
<path d="M123.779 30.6157L124.988 30.4355C125.016 30.6461 125.113 30.8423 125.265 30.9949C125.419 31.1162 125.615 31.1769 125.813 31.1649C125.961 31.1723 126.108 31.1348 126.234 31.0577C126.283 31.0273 126.323 30.9849 126.351 30.9348C126.378 30.8846 126.392 30.8284 126.391 30.7715C126.391 30.5399 125.967 30.21 125.119 29.782L125.087 29.7665C124.75 29.6147 124.444 29.4045 124.185 29.1462C124.081 29.0331 124.005 28.8995 123.96 28.7546C123.916 28.6097 123.905 28.4571 123.928 28.3077C123.951 28.1582 124.008 28.0154 124.094 27.8894C124.179 27.7634 124.293 27.6574 124.425 27.5785C124.767 27.3557 125.213 27.2442 125.762 27.2441C126.202 27.2245 126.637 27.3326 127.014 27.5545C127.164 27.6466 127.291 27.7713 127.384 27.9188C127.477 28.0665 127.534 28.2329 127.549 28.4052L126.366 28.5941C126.336 28.432 126.255 28.2829 126.134 28.1681C126.014 28.083 125.871 28.0345 125.722 28.0286C125.574 28.0228 125.427 28.06 125.3 28.1353C125.254 28.1678 125.217 28.211 125.192 28.261C125.167 28.3108 125.154 28.3659 125.156 28.4215C125.156 28.6175 125.453 28.8706 126.045 29.1809C126.205 29.2665 126.329 29.3339 126.417 29.381C126.77 29.5596 127.093 29.7907 127.373 30.0658C127.54 30.2495 127.631 30.4861 127.631 30.7309C127.632 30.9092 127.585 31.0845 127.495 31.2397C127.405 31.3947 127.275 31.5244 127.117 31.6155C126.776 31.837 126.324 31.9481 125.762 31.9485C125.291 31.9666 124.826 31.8439 124.428 31.5973C124.257 31.4855 124.111 31.3409 123.999 31.1722C123.888 31.0033 123.813 30.8142 123.779 30.6162L123.779 30.6157ZM121.11 30.8852V28.052H120.337V27.3569H121.11V26.0716H122.356V27.3569H123.288V28.052H122.356V30.8046C122.352 30.8608 122.363 30.9168 122.388 30.9677C122.413 31.0185 122.45 31.0624 122.497 31.095C122.622 31.1667 122.766 31.2001 122.91 31.1909C122.961 31.1905 123.013 31.1871 123.064 31.1808C123.125 31.1735 123.198 31.1623 123.281 31.149L123.288 31.8775C123.171 31.9026 123.054 31.9209 122.936 31.9321C122.817 31.9433 122.695 31.949 122.564 31.949C122.076 31.949 121.714 31.8604 121.473 31.683C121.35 31.5888 121.252 31.4669 121.189 31.3278C121.125 31.1886 121.098 31.0365 121.109 30.8847L121.11 30.8852ZM116.013 31.8274V27.3568H117.278V27.8476C117.493 27.6774 117.733 27.5394 117.991 27.4385C118.218 27.3492 118.46 27.3016 118.706 27.2984C118.943 27.2805 119.179 27.351 119.365 27.4957C119.443 27.5732 119.504 27.666 119.542 27.7678C119.58 27.8697 119.595 27.9783 119.587 28.0864V31.8269H118.334V28.4553C118.347 28.3563 118.321 28.2564 118.261 28.1751C118.187 28.1197 118.094 28.0941 118.002 28.1037C117.881 28.1111 117.764 28.1431 117.658 28.1979C117.521 28.2616 117.393 28.3425 117.278 28.4383V31.827L116.013 31.8274ZM113.616 31.3255C113.423 31.501 113.199 31.6411 112.954 31.7389C112.72 31.8357 112.468 31.8858 112.213 31.8863C111.92 31.9041 111.63 31.8126 111.404 31.6301C111.305 31.5358 111.229 31.4219 111.179 31.2964C111.13 31.1709 111.109 31.0365 111.118 30.9024C111.117 30.6995 111.165 30.499 111.256 30.3165C111.347 30.1339 111.48 29.974 111.644 29.8487C111.994 29.5599 112.638 29.2478 113.577 28.9121V28.4293C113.581 28.374 113.573 28.3185 113.555 28.266C113.537 28.2135 113.508 28.1651 113.47 28.1235C113.428 28.0865 113.378 28.0582 113.324 28.0403C113.27 28.0224 113.213 28.0154 113.156 28.0194C113.011 28.0113 112.866 28.0463 112.741 28.1196C112.694 28.1493 112.655 28.1905 112.629 28.2391C112.603 28.2876 112.59 28.342 112.591 28.3969V28.644H111.327C111.326 28.6243 111.324 28.6046 111.32 28.5852C111.316 28.5659 111.314 28.5462 111.313 28.5266C111.314 28.3412 111.363 28.1592 111.457 27.9978C111.551 27.8364 111.685 27.7008 111.848 27.6044C112.248 27.3521 112.718 27.2262 113.195 27.244C113.76 27.244 114.18 27.3585 114.455 27.5874C114.731 27.8163 114.869 28.1686 114.868 28.644V30.5496C114.868 30.8488 114.878 31.109 114.9 31.3319C114.909 31.4995 114.939 31.6654 114.988 31.8262H113.734C113.698 31.7612 113.672 31.6913 113.657 31.619C113.635 31.5222 113.621 31.4239 113.615 31.325L113.616 31.3255ZM113.577 30.7142V29.5544C113.242 29.6803 112.931 29.8617 112.66 30.0907C112.578 30.1687 112.514 30.262 112.471 30.3648C112.428 30.4677 112.407 30.578 112.409 30.6891C112.401 30.805 112.437 30.9197 112.51 31.0119C112.545 31.0502 112.588 31.0801 112.637 31.0997C112.686 31.1192 112.738 31.1279 112.791 31.1251C112.946 31.1214 113.098 31.0824 113.234 31.0111C113.371 30.9398 113.488 30.8383 113.577 30.7148L113.577 30.7142ZM108.335 30.8857V28.052H107.56V27.3569H108.333V26.0716H109.579V27.3569H110.511V28.052H109.579V30.8046C109.575 30.8606 109.586 30.9167 109.611 30.9674C109.636 31.0183 109.673 31.0621 109.72 31.095C109.845 31.1666 109.988 31.1999 110.133 31.1909C110.185 31.1905 110.236 31.1871 110.288 31.1808C110.348 31.1735 110.421 31.1623 110.504 31.149L110.511 31.8775C110.395 31.9026 110.277 31.9209 110.159 31.9321C110.04 31.9433 109.918 31.949 109.787 31.949C109.299 31.949 108.936 31.8603 108.696 31.683C108.573 31.5887 108.476 31.4667 108.413 31.3275C108.35 31.1884 108.322 31.0364 108.334 30.8847L108.335 30.8857ZM105.523 31.8279V25.7696H106.788V31.8269L105.523 31.8279ZM104.309 27.3578V31.8279H103.064V31.3375C102.848 31.5113 102.605 31.6513 102.344 31.7522C102.113 31.8442 101.866 31.8927 101.616 31.8953C101.381 31.9129 101.147 31.8418 100.963 31.6969C100.885 31.6181 100.825 31.5239 100.787 31.4208C100.749 31.3176 100.734 31.2078 100.742 31.0986V27.3568H101.994V30.7873C101.99 30.829 101.995 30.871 102.009 30.9107C102.023 30.9505 102.045 30.9869 102.074 31.0178C102.146 31.0712 102.237 31.0967 102.327 31.0891C102.45 31.0814 102.569 31.0494 102.678 30.9949C102.817 30.9319 102.947 30.851 103.064 30.7545V27.3568L104.309 27.3578ZM96.0269 30.6167L97.2363 30.4366C97.2644 30.647 97.3616 30.8432 97.5133 30.9959C97.6673 31.1173 97.8629 31.178 98.0609 31.1659C98.2093 31.1733 98.3564 31.1359 98.4821 31.0587C98.5314 31.0282 98.5718 30.9859 98.5993 30.9357C98.6267 30.8856 98.6402 30.8293 98.6388 30.7726C98.6388 30.5409 98.2148 30.211 97.3671 29.783L97.3347 29.7676C96.9978 29.6155 96.6921 29.4053 96.4324 29.1472C96.329 29.0342 96.2525 28.9006 96.2082 28.7557C96.1638 28.6107 96.1527 28.4582 96.1758 28.3087C96.1987 28.1591 96.2551 28.0164 96.3411 27.8904C96.4271 27.7644 96.5405 27.6583 96.6733 27.5796C97.0145 27.3568 97.4599 27.2453 98.0091 27.2452C98.4488 27.2255 98.8847 27.3336 99.2611 27.5555C99.4118 27.6476 99.5386 27.7724 99.6315 27.9199C99.7243 28.0675 99.7808 28.2339 99.7965 28.4063L98.6135 28.5951C98.5836 28.4331 98.5024 28.2841 98.3811 28.1691C98.2611 28.084 98.1178 28.0355 97.9695 28.0297C97.821 28.0238 97.6742 28.0609 97.5475 28.1363C97.5012 28.169 97.464 28.212 97.439 28.262C97.414 28.3119 97.4019 28.367 97.404 28.4225C97.404 28.6185 97.7004 28.8717 98.2933 29.1819C98.4519 29.2675 98.5766 29.3349 98.6647 29.382C99.018 29.5607 99.3404 29.7919 99.6206 30.0669C99.7871 30.2506 99.8788 30.4872 99.8784 30.732C99.8796 30.9101 99.8329 31.0854 99.7428 31.2406C99.6529 31.3958 99.5226 31.5253 99.3652 31.6165C99.0235 31.8381 98.5717 31.9492 98.0096 31.9495C97.5386 31.9676 97.073 31.845 96.6757 31.5983C96.5038 31.4866 96.3575 31.3417 96.2458 31.1727C96.134 31.0036 96.0592 30.8141 96.026 30.6157L96.0269 30.6167ZM91.6899 31.8279V27.3568H92.9547V27.8476C93.1704 27.6775 93.4108 27.5397 93.6682 27.4385C93.8956 27.3491 94.138 27.3016 94.3833 27.2984C94.6209 27.2804 94.8565 27.351 95.0425 27.4957C95.1206 27.5731 95.1808 27.666 95.2189 27.7678C95.2571 27.8697 95.2725 27.9783 95.2641 28.0864V31.8269H94.0117V28.4553C94.0241 28.3563 93.9982 28.2564 93.9387 28.1751C93.8647 28.1197 93.7714 28.0942 93.6785 28.1041C93.5586 28.1115 93.4416 28.1436 93.3353 28.1983C93.1984 28.2621 93.0704 28.3429 92.9546 28.4386V31.8274L91.6899 31.8279ZM86.9901 28.3808C86.9896 28.2117 87.0361 28.0454 87.1245 27.8998C87.213 27.7542 87.3403 27.6344 87.4929 27.5531C87.8302 27.3484 88.2813 27.2459 88.8461 27.2453C89.2932 27.2268 89.7356 27.34 90.1155 27.5698C90.2651 27.6557 90.3893 27.7777 90.4758 27.924C90.5624 28.0705 90.6083 28.2362 90.6093 28.4051V30.7144C90.6149 30.8922 90.5733 31.0684 90.4883 31.2259C90.4033 31.3834 90.278 31.517 90.1243 31.6137C89.802 31.8325 89.3573 31.9417 88.7904 31.9413C88.2445 31.9413 87.8086 31.8286 87.4825 31.6031C87.3277 31.5053 87.2012 31.3707 87.115 31.212C87.0288 31.0533 86.9859 30.8759 86.9901 30.6965V28.3808ZM88.2812 30.7799C88.2784 30.8344 88.2891 30.8887 88.3123 30.9385C88.3353 30.9882 88.3704 31.0319 88.4143 31.066C88.5244 31.1397 88.6569 31.1749 88.7904 31.1662C88.9314 31.1733 89.071 31.1373 89.1897 31.0632C89.2369 31.0319 89.2754 30.9895 89.3013 30.94C89.3272 30.8905 89.3398 30.8354 89.3379 30.7799V28.345C89.3373 28.2961 89.323 28.2482 89.2965 28.2067C89.27 28.1651 89.2321 28.1314 89.1873 28.1093C89.066 28.0444 88.9287 28.0132 88.7904 28.0191C88.6615 28.0137 88.5338 28.045 88.4231 28.1093C88.3801 28.1328 88.3442 28.167 88.3194 28.2085C88.2945 28.2499 88.2813 28.297 88.2812 28.345V30.7799ZM81.7172 30.2737V27.1675C81.7096 26.9477 81.7592 26.7296 81.8614 26.5335C81.9635 26.3372 82.115 26.1692 82.3018 26.045C82.6926 25.7748 83.2325 25.6396 83.9214 25.639C84.5701 25.639 85.0851 25.7778 85.4662 26.0553C85.6495 26.1854 85.7972 26.3572 85.8964 26.5557C85.9956 26.7542 86.0432 26.9733 86.0351 27.1938V27.7758H84.5929V27.1093C84.5998 27.0227 84.587 26.9357 84.5555 26.8543C84.5239 26.773 84.4744 26.6993 84.4104 26.6387C84.2495 26.5363 84.0615 26.4818 83.8691 26.4818C83.6767 26.4818 83.4887 26.5363 83.3278 26.6387C83.2638 26.6995 83.2143 26.773 83.1827 26.8544C83.1512 26.9357 83.1384 27.0227 83.1452 27.1093V30.4898C83.1385 30.5771 83.1514 30.6647 83.1829 30.7467C83.2144 30.8286 83.2638 30.903 83.3278 30.9647C83.4883 31.068 83.6766 31.1231 83.8691 31.1231C84.0616 31.1231 84.2499 31.068 84.4104 30.9647C84.4744 30.903 84.5238 30.8288 84.5553 30.7467C84.5868 30.6647 84.5996 30.5771 84.5929 30.4898V29.6651H86.0343V30.2988C86.0343 30.8289 85.8469 31.2377 85.4721 31.5253C85.0972 31.813 84.5632 31.957 83.8698 31.9575C83.1607 31.9575 82.6245 31.8149 82.2611 31.5298C81.8976 31.2446 81.7161 30.8255 81.7168 30.2724L81.7172 30.2737ZM74.436 30.5669V28.5594C74.4346 28.3706 74.4824 28.1846 74.5748 28.0186C74.6673 27.8526 74.8013 27.712 74.9646 27.6098C75.3687 27.3506 75.8468 27.2225 76.3306 27.2435C76.8998 27.2435 77.3398 27.3562 77.6452 27.5826C77.7976 27.6969 77.919 27.8456 77.999 28.0158C78.0791 28.1859 78.1152 28.3723 78.1045 28.5591V29.6986H75.7264V30.541C75.7087 30.7125 75.7521 30.8846 75.8492 31.0286C75.9051 31.0788 75.9713 31.1169 76.0435 31.1403C76.1156 31.1637 76.1922 31.1719 76.2678 31.1644C76.421 31.1796 76.5745 31.1381 76.6976 31.0483C76.7792 30.9729 76.8197 30.8025 76.8197 30.541V30.2306H78.1048V30.5651C78.1048 31.0243 77.9486 31.3694 77.6363 31.6003C77.324 31.8312 76.8572 31.9471 76.236 31.9479C75.6775 31.9479 75.2394 31.8249 74.9173 31.5787C74.7599 31.4593 74.6341 31.305 74.5503 31.1289C74.4665 30.9526 74.4271 30.7596 74.4356 30.5656L74.436 30.5669ZM75.7268 29.0059H76.8201V28.5527C76.8272 28.4808 76.8195 28.4082 76.7972 28.3393C76.7752 28.2702 76.7391 28.2062 76.6912 28.1509C76.5753 28.06 76.4275 28.0165 76.2792 28.0297C76.1273 28.0158 75.9756 28.0591 75.8557 28.1509C75.8078 28.2062 75.7717 28.2702 75.7495 28.3391C75.7274 28.4082 75.7197 28.4808 75.7268 28.5527V29.0059ZM69.8226 30.6175L71.0318 30.4373C71.0598 30.6479 71.157 30.8441 71.3089 30.9967C71.463 31.1181 71.6584 31.1787 71.8564 31.1667C72.0048 31.1741 72.152 31.1367 72.2775 31.0595C72.3269 31.0291 72.3673 30.9867 72.3948 30.9365C72.4223 30.8864 72.4361 30.8302 72.4347 30.7733C72.4347 30.5417 72.0107 30.2118 71.163 29.7838L71.1309 29.7683C70.794 29.6165 70.4884 29.4063 70.2289 29.148C70.1256 29.0349 70.0492 28.9013 70.0049 28.7564C69.9606 28.6115 69.9495 28.4589 69.9725 28.3095C69.9954 28.16 70.0519 28.0172 70.1378 27.8913C70.2237 27.7652 70.3371 27.6591 70.4699 27.5804C70.8116 27.3575 71.2559 27.2459 71.8061 27.2459C72.2458 27.2263 72.6816 27.3344 73.058 27.5563C73.2088 27.6484 73.3354 27.7732 73.4283 27.9207C73.5212 28.0683 73.5777 28.2347 73.5935 28.407L72.41 28.5959C72.3806 28.4337 72.2993 28.2846 72.1778 28.1699C72.0578 28.0848 71.9148 28.0362 71.7663 28.0303C71.618 28.0245 71.4713 28.0617 71.3447 28.1371C71.2983 28.1696 71.2609 28.2128 71.2357 28.2626C71.2105 28.3126 71.1985 28.3678 71.2005 28.4233C71.2005 28.6193 71.497 28.8725 72.09 29.1827C72.2489 29.2683 72.3734 29.3357 72.4614 29.3828C72.8147 29.5615 73.1373 29.7927 73.4176 30.0677C73.584 30.2515 73.6755 30.4879 73.6751 30.7328C73.6765 30.911 73.6297 31.0863 73.5397 31.2415C73.4496 31.3967 73.3192 31.5263 73.1616 31.6173C72.8202 31.8388 72.3684 31.9499 71.8066 31.9503C71.3354 31.9683 70.8699 31.8457 70.4724 31.5991C70.3004 31.4874 70.1539 31.3423 70.0419 31.1731C69.9302 31.004 69.8553 30.8142 69.8221 30.6157L69.8226 30.6175ZM67.7712 31.8287V27.3568H69.0363V31.8269L67.7712 31.8287ZM67.7712 26.6053V25.7715H69.0363V26.6053H67.7712ZM63.0137 31.8287V25.7696H64.2789V27.8476C64.4943 27.6774 64.7346 27.5395 64.9919 27.4385C65.2193 27.3491 65.4619 27.3016 65.7071 27.2984C65.9447 27.2804 66.1804 27.351 66.3665 27.4957C66.4445 27.5731 66.5046 27.666 66.5428 27.7678C66.5809 27.8697 66.5963 27.9783 66.5877 28.0864V31.8269H65.3356V28.4553C65.3481 28.3563 65.322 28.2564 65.2625 28.1751C65.1886 28.1196 65.0956 28.0939 65.0027 28.1037C64.8825 28.1111 64.7654 28.1432 64.659 28.1979C64.5222 28.2616 64.3943 28.3425 64.2789 28.4383V31.827L63.0137 31.8287ZM58.3019 30.5669V28.5925C58.2974 28.3996 58.3425 28.2087 58.4334 28.0371C58.5241 27.8656 58.6577 27.7188 58.8218 27.6103C59.1676 27.3656 59.6215 27.2435 60.1836 27.244C60.7419 27.244 61.178 27.3599 61.4954 27.5917C61.6498 27.7032 61.7738 27.8496 61.8565 28.0184C61.9392 28.1871 61.9782 28.3728 61.97 28.5596V28.9108H60.685V28.5504C60.6921 28.4785 60.6844 28.4059 60.6624 28.3368C60.6401 28.2679 60.6041 28.2039 60.5562 28.1486C60.4402 28.0576 60.2924 28.0142 60.1439 28.0273C59.9921 28.0133 59.8405 28.0567 59.7208 28.1486C59.6727 28.2039 59.6366 28.2679 59.6145 28.3368C59.5923 28.4059 59.5845 28.4785 59.5916 28.5504V30.5392C59.574 30.7112 59.6173 30.8838 59.7144 31.0286C59.7702 31.0788 59.8365 31.1169 59.9086 31.1403C59.9809 31.1637 60.0573 31.1719 60.1331 31.1644C60.2861 31.1797 60.4395 31.1382 60.5624 31.0483C60.6442 30.9729 60.685 30.8025 60.685 30.5392V30.1963H61.97V30.5651C61.97 31.0231 61.8138 31.3681 61.5015 31.6003C61.188 31.8319 60.7211 31.9479 60.101 31.9479C59.5471 31.9479 59.1089 31.8244 58.7865 31.5774C58.6283 31.4586 58.5016 31.3049 58.4172 31.1289C58.3327 30.9529 58.2928 30.7597 58.3008 30.5656L58.3019 30.5669ZM53.6691 31.8287V27.3568H54.9339V27.8476C55.1494 27.6774 55.39 27.5395 55.6474 27.4385C55.8748 27.3491 56.1172 27.3016 56.3624 27.2984C56.6 27.2804 56.8356 27.351 57.0217 27.4957C57.0997 27.5731 57.1598 27.666 57.1981 27.7678C57.2363 27.8697 57.2515 27.9783 57.243 28.0864V31.8269H55.9908V28.4553C56.0033 28.3563 55.9773 28.2564 55.9179 28.1751C55.844 28.1196 55.7508 28.0941 55.6579 28.1037C55.5377 28.1111 55.4205 28.1432 55.3141 28.1979C55.1773 28.2619 55.0494 28.3426 54.9339 28.4383V31.827L53.6691 31.8287ZM51.2718 31.3268C51.0788 31.5022 50.8547 31.6423 50.6104 31.7402C50.376 31.8369 50.1241 31.8871 49.8695 31.8876C49.5758 31.9056 49.2862 31.8139 49.0597 31.6314C48.9611 31.5371 48.8846 31.4234 48.8352 31.2977C48.7859 31.1722 48.765 31.0378 48.7739 30.9037C48.7735 30.7008 48.8207 30.5004 48.9119 30.3178C49.0032 30.1353 49.136 29.9753 49.3002 29.85C49.6504 29.5612 50.2948 29.2491 51.2333 28.9134V28.4293C51.237 28.374 51.2295 28.3185 51.2112 28.266C51.1927 28.2135 51.1639 28.1651 51.1262 28.1235C51.0839 28.0864 51.0342 28.0582 50.9803 28.0402C50.9263 28.0224 50.8693 28.0152 50.8124 28.0194C50.6669 28.0112 50.5222 28.0462 50.3974 28.1196C50.3498 28.1492 50.311 28.1903 50.2846 28.239C50.2582 28.2875 50.2452 28.342 50.247 28.3969V28.644H48.9819C48.9814 28.6243 48.9791 28.6046 48.9753 28.5852C48.9717 28.5659 48.9697 28.5462 48.9692 28.5266C48.9697 28.3412 49.0191 28.1592 49.1127 27.9978C49.2064 27.8362 49.341 27.7008 49.5038 27.6044C49.9036 27.3521 50.3742 27.2262 50.8506 27.244C51.4154 27.244 51.8357 27.3585 52.1115 27.5874C52.3872 27.8163 52.5247 28.1686 52.5239 28.644V30.5496C52.5239 30.8488 52.5346 31.109 52.5562 31.3319C52.5651 31.4995 52.5946 31.6654 52.6439 31.8262H51.3897C51.3537 31.7612 51.3278 31.6913 51.3124 31.619C51.2907 31.5222 51.2768 31.4239 51.2707 31.325L51.2718 31.3268ZM51.2333 30.7155V29.5557C50.8979 29.6816 50.5877 29.863 50.3162 30.092C50.2347 30.1699 50.1703 30.2632 50.127 30.3661C50.0839 30.4688 50.0628 30.5793 50.0649 30.6904C50.0574 30.8063 50.0932 30.9209 50.1657 31.0132C50.2008 31.0513 50.2443 31.0814 50.293 31.101C50.3416 31.1205 50.3942 31.1292 50.4468 31.1264C50.6018 31.1227 50.7538 31.0837 50.8903 31.0124C51.027 30.9412 51.1444 30.8397 51.2331 30.7161L51.2333 30.7155ZM45.6895 31.8292V27.3568H46.9547V27.9648C47.1012 27.7573 47.2982 27.5883 47.5283 27.4728C47.7623 27.3595 48.0208 27.3028 48.2821 27.3071H48.4087V28.2405C48.3474 28.2201 48.2842 28.2054 48.22 28.1964C48.1473 28.1862 48.0739 28.1813 48.0006 28.1821C47.7306 28.1678 47.4627 28.2352 47.234 28.3752C47.1452 28.4328 47.0729 28.5115 47.0241 28.6039C46.9752 28.6962 46.9514 28.799 46.9547 28.9028V31.8269L45.6895 31.8292ZM41.7313 31.8292V25.7696H45.3869V26.645H43.1327V28.2335H44.7563V29.1086H43.1327V31.8273L41.7313 31.8292Z" fill="white"/>
<path d="M147.837 10.0247L148.35 9.97632C148.366 10.1165 148.433 10.2467 148.537 10.3445C148.646 10.4271 148.781 10.4687 148.919 10.4615C149.055 10.4713 149.19 10.4345 149.302 10.3575C149.342 10.3291 149.374 10.2923 149.397 10.2499C149.418 10.2075 149.43 10.1607 149.431 10.113C149.433 10.0574 149.414 10.0031 149.377 9.96019C149.324 9.90834 149.259 9.87053 149.188 9.85041C149.126 9.82942 148.986 9.79252 148.766 9.73971C148.551 9.70155 148.347 9.61578 148.172 9.48904C148.096 9.42657 148.035 9.34847 147.994 9.26034C147.951 9.17221 147.931 9.07623 147.931 8.97925C147.931 8.85035 147.971 8.72433 148.045 8.61724C148.124 8.50163 148.237 8.4121 148.37 8.36046C148.533 8.29795 148.707 8.26805 148.883 8.27252C149.148 8.25361 149.409 8.32776 149.621 8.48143C149.704 8.55088 149.77 8.63671 149.814 8.73307C149.86 8.82944 149.883 8.93407 149.883 9.03987L149.356 9.06224C149.346 8.95433 149.294 8.85417 149.211 8.7814C149.113 8.71763 148.995 8.68756 148.877 8.69593C148.751 8.68858 148.626 8.72047 148.518 8.78699C148.492 8.80428 148.47 8.82773 148.456 8.85519C148.441 8.88264 148.434 8.91324 148.436 8.94413C148.436 8.97392 148.442 9.00329 148.456 9.02997C148.469 9.05666 148.489 9.07995 148.513 9.09802C148.662 9.18335 148.826 9.24071 148.996 9.26712C149.193 9.30591 149.383 9.36704 149.565 9.44924C149.683 9.50804 149.782 9.59703 149.853 9.70667C149.924 9.83132 149.96 9.97238 149.957 10.1151C149.953 10.2578 149.911 10.397 149.833 10.5181C149.749 10.6458 149.625 10.7446 149.481 10.8008C149.299 10.8674 149.106 10.8987 148.913 10.8931C148.64 10.9108 148.371 10.8319 148.153 10.6712C147.967 10.503 147.853 10.2716 147.837 10.0247Z" fill="white"/>
<path d="M150.392 10.8491V8.31546H151.18L151.653 10.0439L152.121 8.31546H152.91V10.8491H152.422V8.85465L151.904 10.8491H151.396L150.881 8.85465V10.8491H150.392Z" fill="white"/>
<path fill-rule="evenodd" clip-rule="evenodd" d="M19.1913 0C22.2854 2.57276e-05 25.3102 0.891692 27.8829 2.56224C30.4556 4.23279 32.4608 6.60719 33.6449 9.3852C34.8289 12.1632 35.1388 15.22 34.5351 18.1691C33.9315 21.1182 32.4414 23.8271 30.2535 25.9533C28.0656 28.0795 25.278 29.5275 22.2433 30.1141C19.2086 30.7007 16.063 30.3996 13.2043 29.249C10.3457 28.0983 7.90233 26.1497 6.18326 23.6496C4.46422 21.1495 3.54666 18.2101 3.54663 15.2033C3.54709 11.1712 5.19551 7.30449 8.12936 4.45342C11.0632 1.60235 15.0422 0.000448406 19.1913 0Z" fill="white"/>
<path fill-rule="evenodd" clip-rule="evenodd" d="M6.71486 14.729C6.71469 14.5134 6.89435 14.3386 7.11614 14.3385L8.37675 14.3376C8.5985 14.3374 8.77841 14.512 8.77861 14.7274L8.7796 15.7518C8.7798 15.9674 8.60016 16.1422 8.37836 16.1424L7.1176 16.1434C6.89581 16.1436 6.71586 15.969 6.71569 15.7535L6.71486 14.729ZM24.3803 18.4554C24.3802 18.24 24.5599 18.0652 24.7815 18.0649L26.0418 18.0637C26.2637 18.0635 26.4436 18.2381 26.4438 18.4537L26.4447 19.4777C26.4448 19.6933 26.2652 19.8681 26.0434 19.8684L24.7831 19.8694C24.5613 19.8697 24.3814 19.6951 24.3813 19.4795L24.3803 18.4554ZM20.4836 13.7839C20.4835 13.5684 20.663 13.3937 20.8848 13.3934L22.1445 13.3923C22.3665 13.392 22.5464 13.5666 22.5465 13.7822L22.5474 14.8059C22.5476 15.0214 22.3679 15.1962 22.1461 15.1965L20.8861 15.1974C20.6643 15.1977 20.4843 15.023 20.4841 14.8074L20.4836 13.7839ZM11.5489 16.1843C11.5487 15.9688 11.7284 15.794 11.9502 15.7938L13.2107 15.7928C13.4325 15.7927 13.6124 15.9672 13.6127 16.1828L13.6136 17.2072C13.6139 17.4227 13.4341 17.5977 13.2123 17.5978L11.9517 17.5987C11.7299 17.5988 11.55 17.4243 11.5498 17.2087L11.5489 16.1843ZM29.2141 19.9105C29.214 19.695 29.3936 19.5201 29.6154 19.52L30.8756 19.519C31.0974 19.5188 31.2773 19.6934 31.2775 19.9089L31.2785 20.9335C31.2787 21.149 31.0991 21.3238 30.8773 21.324L29.6169 21.325C29.3951 21.3251 29.2152 21.1506 29.215 20.935L29.2141 19.9105ZM18.4749 15.9001C18.4747 15.6846 18.6543 15.5097 18.8761 15.5096L21.31 15.5076C21.5318 15.5075 21.7118 15.6821 21.7119 15.8976L21.7138 17.9481C21.7139 18.1636 21.5343 18.3385 21.3125 18.3386L18.8786 18.3406C18.6568 18.3407 18.4769 18.1661 18.4767 17.9506L18.4749 15.9001ZM9.54046 18.3006C9.54029 18.0851 9.71994 17.9102 9.94171 17.9101L12.3753 17.908C12.597 17.9079 12.777 18.0825 12.7772 18.298L12.7788 20.3481C12.779 20.5636 12.5993 20.7385 12.3776 20.7387L9.94404 20.7407C9.72224 20.7409 9.54229 20.5664 9.54212 20.3508L9.54046 18.3006ZM17.0479 21.8926C17.0477 21.677 17.2274 21.5022 17.4492 21.5021L18.2644 21.5014C18.4862 21.5013 18.6661 21.6758 18.6662 21.8914L18.6666 22.5266C18.6667 22.7421 18.4871 22.9169 18.2653 22.9171L17.4502 22.9176C17.2284 22.9177 17.0485 22.7432 17.0484 22.5276L17.0479 21.8926ZM23.8612 15.0955C23.8611 14.88 24.0407 14.7052 24.2626 14.705L26.6961 14.703C26.9179 14.7028 27.0978 14.8774 27.0981 15.0929L27.0999 17.1435C27.1002 17.3591 26.9206 17.5339 26.6988 17.5341L24.265 17.536C24.0432 17.5361 23.8633 17.3616 23.8631 17.146L23.8612 15.0955ZM14.9266 17.4961C14.9263 17.2805 15.106 17.1057 15.3278 17.1056L17.7616 17.1036C17.9834 17.1035 18.1633 17.2781 18.1634 17.4936L18.1652 19.5439C18.1653 19.7595 17.9857 19.9343 17.7639 19.9344L15.3303 19.9364C15.1085 19.9365 14.9286 19.762 14.9283 19.5464L14.9266 17.4961ZM20.7683 19.7583C20.7682 19.5428 20.9478 19.3679 21.1696 19.3678L22.875 19.3666C23.0968 19.3665 23.2767 19.5411 23.2768 19.7566L23.278 21.1701C23.2782 21.3856 23.0985 21.5605 22.8767 21.5607L21.1715 21.562C20.9497 21.5623 20.7698 21.3877 20.7697 21.1722L20.7683 19.7583ZM18.2396 14.002C18.2393 13.7864 18.419 13.6116 18.6408 13.6113L19.4155 13.6108C19.6374 13.6105 19.8173 13.7851 19.8175 14.0007L19.8179 14.6007C19.8182 14.8163 19.6386 14.9911 19.4167 14.9912L18.642 14.9919C18.4203 14.992 18.2404 14.8174 18.2401 14.602L18.2396 14.002ZM9.3049 16.4029C9.30471 16.1872 9.4844 16.0124 9.7062 16.0122L10.4811 16.0117C10.7029 16.0116 10.8828 16.1861 10.883 16.4016L10.8835 17.0011C10.8837 17.2167 10.704 17.3915 10.4822 17.3916L9.7073 17.3923C9.48554 17.3924 9.30562 17.2178 9.30543 17.0023L9.3049 16.4029ZM26.9698 20.1289C26.9696 19.9134 27.1492 19.7385 27.371 19.7384L28.1462 19.7378C28.368 19.7376 28.5479 19.9122 28.548 20.1277L28.5484 20.7273C28.5486 20.9427 28.3689 21.1175 28.1473 21.1178L27.3722 21.1183C27.1504 21.1186 26.9705 20.944 26.9702 20.7285L26.9698 20.1289ZM21.9519 15.8024C21.9518 15.587 22.1314 15.4122 22.3531 15.4119L23.128 15.4113C23.3498 15.411 23.5298 15.5857 23.5299 15.8012L23.5303 16.4008C23.5305 16.6162 23.3508 16.791 23.1292 16.7913L22.3544 16.7919C22.1325 16.7922 21.9526 16.6176 21.9524 16.402L21.9519 15.8024ZM13.0175 18.2027C13.0173 17.9871 13.197 17.8123 13.4188 17.8122L14.1936 17.8116C14.4153 17.8115 14.5952 17.9861 14.5954 18.2015L14.5958 18.8014C14.5961 19.0171 14.4165 19.1919 14.1945 19.1921L13.4198 19.1926C13.1981 19.1927 13.0182 19.0181 13.018 18.8026L13.0175 18.2027ZM31.6796 18.3421C31.6794 18.1266 31.859 17.9517 32.0808 17.9515L32.8557 17.951C33.0775 17.9507 33.2574 18.1253 33.2577 18.3408L33.2581 18.9405C33.2584 19.156 33.0787 19.3309 32.8569 19.331L32.082 19.3316C31.8602 19.3318 31.6803 19.1572 31.68 18.9417L31.6796 18.3421ZM5.87451 17.4773C5.87432 17.2618 6.05399 17.087 6.27578 17.0868L8.15742 17.0854C8.3792 17.0853 8.55912 17.2598 8.55931 17.4754L8.56065 19.0429C8.56083 19.2584 8.38121 19.4332 8.15943 19.4335L6.27779 19.4351C6.056 19.4353 5.87604 19.2608 5.87585 19.0452L5.87451 17.4773ZM19.2496 11.461C19.2493 11.2454 19.4289 11.0706 19.6507 11.0704L20.9513 11.0693C21.1731 11.0692 21.353 11.2437 21.3533 11.4592L21.3542 12.5186C21.3545 12.7342 21.1748 12.909 20.953 12.9092L19.6523 12.9104C19.4305 12.9105 19.2506 12.736 19.2504 12.5204L19.2496 11.461ZM10.315 13.8612C10.3148 13.6457 10.4945 13.4708 10.7162 13.4707L12.0169 13.4697C12.2386 13.4695 12.4185 13.6441 12.4188 13.8595L12.4198 14.9189C12.4201 15.1344 12.2404 15.3093 12.0186 15.3095L10.7177 15.3106C10.496 15.3108 10.316 15.1363 10.3158 14.9207L10.315 13.8612ZM27.9801 17.5873C27.9801 17.3718 28.1597 17.197 28.3814 17.1969L29.6823 17.196C29.9041 17.1958 30.084 17.3704 30.0842 17.586L30.0851 18.6453C30.0853 18.8609 29.9056 19.0357 29.6838 19.036L28.3826 19.037C28.1608 19.0373 27.9807 18.8626 27.9807 18.647L27.9801 17.5873ZM24.0833 12.9159C24.0832 12.7004 24.2628 12.5255 24.4846 12.5253L25.7855 12.5243C26.0073 12.5241 26.1872 12.6987 26.1874 12.9142L26.1884 13.9739C26.1886 14.1894 26.009 14.3642 25.7872 14.3645L24.4861 14.3655C24.2643 14.3658 24.0844 14.1912 24.0843 13.9757L24.0833 12.9159ZM15.1488 15.3171C15.1485 15.1015 15.3282 14.9267 15.55 14.9266L16.8507 14.9254C17.0725 14.9253 17.2524 15.0998 17.2527 15.3154L17.2535 16.3749C17.2537 16.5904 17.0741 16.7653 16.8523 16.7654L15.5517 16.7664C15.3299 16.7666 15.15 16.592 15.1498 16.3765L15.1488 15.3171ZM28.2693 15.983C28.2691 15.7674 28.4487 15.5926 28.6705 15.5925L28.9193 15.5922C29.141 15.5921 29.3209 15.7666 29.3212 15.9821L29.3213 16.1218C29.3216 16.3373 29.142 16.5121 28.9202 16.5124L28.6713 16.5125C28.4495 16.5128 28.2696 16.3382 28.2693 16.1227V15.983ZM15.6497 12.3293C15.6494 12.1137 15.8291 11.9389 16.0509 11.9387L17.3108 11.9376C17.5326 11.9374 17.7126 12.1121 17.7127 12.3276L17.7134 13.3515C17.7135 13.567 17.5339 13.7418 17.3122 13.7421L16.0525 13.743C15.8307 13.7432 15.6508 13.5687 15.6505 13.3531L15.6497 12.3293Z" fill="#6E678F"/>
<path d="M17.585 31.4572C23.4784 31.4572 29.1255 29.6449 32.1693 25.5313C32.7801 24.7057 32.97 24.0924 32.9387 23.6312C32.9086 23.188 32.6656 22.7756 32.1437 22.3612C31.6146 21.9412 30.8441 21.5574 29.8644 21.1811C28.8899 20.8068 27.7443 20.4531 26.4842 20.0794C26.4841 20.0794 26.4841 20.0794 26.4841 20.0794L26.6263 19.6L17.585 31.4572ZM17.585 31.4572C8.12339 31.4572 0.5 24.2162 0.5 15.3469M17.585 31.4572L0.5 15.3469M0.5 15.3469C0.5 10.3234 2.94 5.82919 6.77814 2.86951M0.5 15.3469L6.77814 2.86951M6.77814 2.86951C7.03464 2.67171 7.33157 2.67805 7.59324 2.83618M6.77814 2.86951L7.59324 2.83618M7.59324 2.83618C7.86504 3.00043 8.06367 3.31367 8.06108 3.67445L7.59324 2.83618Z" fill="white" stroke="#6E678F"/>
<path d="M27.8425 15.6098C27.8425 15.3942 28.0223 15.2195 28.2441 15.2195H28.6806H29.0473C29.2691 15.2195 29.4488 15.3942 29.4488 15.6098V16.2602C29.4488 16.4757 29.2691 16.6504 29.0473 16.6504H28.2441C28.0223 16.6504 27.8425 16.4757 27.8425 16.2602V15.6098Z" fill="#6E678F"/>
</g>
<defs>
<clipPath id="clip0_330_54">
<rect width="153" height="32" fill="white"/>
</clipPath>
</defs>
</svg>
