<svg width="724" height="646" viewBox="0 0 724 646" fill="none" xmlns="http://www.w3.org/2000/svg">
<path d="M6.10352e-05 641.424C117.175 620.458 162.532 472.62 266.619 414.867C382.123 350.779 548.004 389.762 634.105 289.586C722.658 186.557 739.345 30.6431 711.067 -102.236C683.45 -232.01 572.399 -320.467 483.348 -418.823C396.299 -514.967 324.255 -646.233 196.799 -670.235C70.251 -694.066 -35.601 -578.241 -158.467 -539.689C-278.245 -502.105 -439.99 -546.975 -515.542 -446.719C-592.008 -345.25 -518.155 -200.104 -509.921 -73.3159C-503.493 25.6571 -500.316 120.585 -472.517 215.791C-440.484 325.497 -420.818 446.183 -335.902 522.673C-245.84 603.799 -119.318 662.773 6.10352e-05 641.424Z" fill="#120647"/>
</svg>
